<?xml version="1.0" encoding="utf-8"?>
<!-- Generator: Adobe Illustrator 24.1.1, SVG Export Plug-In . SVG Version: 6.00 Build 0)  -->
<svg version="1.1" id="Calque_1" xmlns="http://www.w3.org/2000/svg" xmlns:xlink="http://www.w3.org/1999/xlink" x="0px" y="0px"
	 viewBox="0 0 388.7 325.1" style="enable-background:new 0 0 388.7 325.1;" xml:space="preserve">
<style type="text/css">
	.st0{opacity:0.3;}
	.st1{stroke:#000000;stroke-width:1.0847;}
</style>
<g class="st0">
	<path class="st1" d="M311.6,273.3c-3.1-8.9-6.4-18.1-12.7-27.3l-0.1-0.1c-7.3-6.6-17.4-9.5-29.5-8c-17.2,5.5-36.7,13.5-51.4,31.4
		c-3.8,4.6-6.8,9.5-9.8,14.3c-4.4,7.2-8.6,14-15.1,19.5c-8.7,7.4-14.5,13.3-17.3,17.7c-0.9,1.4-1.6,2.8-2.4,4.3h1
		c0.7-1.3,1.4-2.6,2.1-3.8c2.7-4.4,8.5-10.2,17.1-17.5c6.7-5.6,10.9-12.5,15.3-19.7c2.9-4.8,5.9-9.7,9.7-14.3
		c14.5-17.6,33.9-25.6,50.9-31.1c11.8-1.3,21.7,1.4,28.7,7.9c6.2,9,9.4,18.1,12.5,27c4.4,12.5,8.6,24.4,20.7,34.8
		c8.9,7.7,18.5,12.4,27.8,16.7h2.2c-9.9-4.6-20.1-9.3-29.5-17.4C320.1,297.5,316,285.8,311.6,273.3z"/>
	<path d="M260.5,316.4c-4.3,1.7-8.1,4.9-11.7,8.8h1.4c3.3-3.4,6.7-6.1,10.6-7.8c8.6-3.5,18.8-0.2,25,7.8h1.2
		C280.6,316.3,269.7,312.6,260.5,316.4z"/>
	<path d="M314.8,299.7c-3.8-5.9-6-13.4-8.1-20.6c-5.1-17.6-10.4-35.9-41-30.3c-12.8,3.2-23.6,11.9-32.6,19.8
		c-3.6,3.8-7.1,8.8-10.9,14c-5.5,7.8-11.8,16.6-19.7,23.7c-1.2,1.1-2.5,2.3-3.9,3.5c-5.1,4.4-10.9,9.4-15.1,15.4h1.1
		c4.1-5.6,9.6-10.4,14.5-14.7c1.4-1.2,2.7-2.3,3.9-3.4c7.9-7.2,14.3-16,19.8-23.8c3.7-5.2,7.3-10.2,10.8-13.9
		c9-7.8,19.6-16.4,32.2-19.6c29.7-5.4,34.7,11.6,39.9,29.7c2.1,7.3,4.3,14.8,8.2,20.8c8.5,13.1,23.6,19,38.1,24.8
		c0.1,0,0.2,0.1,0.3,0.1h2.5c-0.8-0.3-1.6-0.6-2.5-1C338.1,318.5,323.2,312.6,314.8,299.7z"/>
	<path d="M307.5,322.3L307.5,322.3c-0.9,0.8-1.5,1.8-1.9,2.9h0.9c0.4-0.9,0.9-1.7,1.5-2.3c4.4-2.6,10.2-1.6,15.8-0.2
		c3.9,0.8,7.9,1.6,11.8,2.5h3.4c-5-1.2-10-2.3-15-3.3C318.3,320.5,312.2,319.5,307.5,322.3z"/>
	<path d="M306.7,81.8c-0.3-0.2-0.6-0.6-0.9-0.9c-0.8-1.9-1.1-4-1.1-6.2c0-4.4,1.6-8.4,2.7-11.4l0.8-2c4.2-11,8.1-21.4,18.6-26
		c5.3,0,10.9,2.4,14.8,6.3c4.5,4.4,6.2,10.2,4.2,15.1c-0.7,1.7-4.3,5.5-7.4,8c-2.4,2-14.7,12.3-21.2,16.2
		C315.2,82.2,309.6,84.2,306.7,81.8z M346.7,57.1c2.1-5.3,0.4-11.4-4.4-16.1c-4.1-4.1-10-6.6-15.6-6.6l-0.2,0
		c-10.8,4.7-14.9,15.3-19.2,26.5l-0.8,2c-1.2,3-2.8,7.2-2.8,11.7c0,2.3,0.4,4.6,1.2,6.7l0,0.1l0.1,0.1c0.3,0.2,0.6,0.6,0.9,0.9
		c3.4,2.8,9.4,0.8,11.8-0.6c6.5-4,18.9-14.3,21.3-16.3C341.7,63.2,345.9,59.1,346.7,57.1z"/>
	<path d="M245.3,314.2c10-7.6,21.8-7.9,32.2-8.1c3.7-0.1,7.2-0.1,10.4-0.6c6.7-0.8,10.3-6.9,10.3-17.1l0-0.5
		c-0.1-7.5-1.9-25.7-16.7-31.8c-0.6-0.8-1.6-0.8-2.5-0.9c-0.8,0-1.5-0.1-2-0.6l-0.1-0.1l-0.2,0c-25.2-0.9-36.6,16.1-47.5,32.5
		c-3.7,5.5-7.3,10.9-11.3,15.4c-4,4.4-8.6,7.9-13.2,11.3c-3.7,2.8-7.2,5.4-9.9,8.2c-0.9,1-1.9,2.1-2.8,3.4h1.1
		c0.8-1,1.5-1.9,2.3-2.8c2.6-2.8,6.1-5.4,9.8-8.1c4.6-3.4,9.3-6.9,13.3-11.4c4.1-4.5,7.6-9.8,11.3-15.5c10.8-16.2,22-32.9,46.6-32.1
		c0.7,0.7,1.6,0.8,2.5,0.8c0.8,0,1.5,0.1,1.8,0.6l0.1,0.1l0.1,0c14.4,5.8,16.1,23.6,16.2,30.9v0.5c0,9.6-3.4,15.4-9.5,16.2
		c-3.1,0.4-6.6,0.5-10.2,0.6c-10.6,0.2-22.5,0.5-32.7,8.3c-4.7,3.6-8.3,7.8-11.4,11.7h1.2C237.4,321.4,240.8,317.5,245.3,314.2z"/>
	<path d="M238.5,174.5c0-3.1,0.5-6,1.4-8.9c0.7-1,1.7-1.5,2.8-2c0.7-0.4,1.5-0.8,2.2-1.3c8.7-0.9,18.8,3,26.4,10.1
		c6.4,6,10.1,13.6,10.1,20.8c0,4.8-1.5,9.3-4.5,13.5c-1.8,1.2-3.9,1.8-5.8,2.3c-0.7,0.2-1.4,0.4-2.1,0.6
		C252.7,207.4,238.5,191,238.5,174.5z M271.3,209.9c2.1-0.6,4.2-1.2,6.1-2.4l0.1-0.1c3.2-4.4,4.8-9.1,4.8-14.1
		c0-7.5-3.8-15.3-10.4-21.5c-7.8-7.3-18.2-11.2-27.2-10.3h-0.1l-0.1,0.1c-0.6,0.6-1.3,0.9-2.1,1.3c-1.1,0.6-2.4,1.2-3.2,2.5
		l-0.1,0.1c-1,3-1.5,6-1.5,9.2c0,17,14.7,33.9,31.4,36.1h0.1l0.1,0C269.8,210.3,270.6,210.1,271.3,209.9z"/>
	<path d="M255.7,285.8c-0.3-0.9-0.4-1.9-0.4-2.8c0-3.8,2.2-7.7,5.9-10.6c3.7-2.8,8.1-3.8,11.5-2.6c4.1,0.7,5.9,4.8,5.9,8.5
		c0,1.8-0.4,3.6-1.2,5.1C272.1,288.8,261.9,291,255.7,285.8z M278.1,284.1c0.9-1.7,1.4-3.7,1.4-5.7c0-4.2-2.1-8.8-6.6-9.4
		c-3.6-1.4-8.3-0.3-12.2,2.7c-4,3-6.3,7.2-6.3,11.4c0,1.1,0.2,2.3,0.5,3.3l0,0.1l0.1,0.1c6.6,5.7,17.4,3.3,23-2.3L278.1,284.1z"/>
	<path d="M154,310.1c2-3.5,4.1-6.2,6.2-8.9c3.7-5,7-9.2,8.3-15.6c0.3-1.6,0.5-3.1,0.5-4.7c0-4.7-1.4-8.8-2.8-12.8
		c-1.3-3.7-2.4-7.1-2.4-10.7c0-1.3,0.1-2.5,0.4-3.7c1.1-4.3,4.5-8.8,9.1-11.9c7.1-4.7,17.6-5.3,27.8-5.9c13.9-0.8,28.4-1.6,33-13.5
		c0.7-1.8,0.8-5,0.8-6.3c0-1.3-0.1-2.6-0.2-3.5c-0.5-3.4-2.3-8.2-4.3-13.3c-1.1-2.9-2.3-6-3.3-9c-1-3-2-6-2.9-8.9
		c-4.8-15.6-9-29-23.8-34.9c-10.8-4.4-26.4-6.8-41.4-9.2c-2-0.3-3.9-0.6-5.9-1c-1.7-0.3-3.5-0.5-5.2-0.8c-14.4-2.3-29.2-4.7-42-9.3
		c-2.2-0.8-4.2-1.6-6-2.3c-6-2.4-11.1-4.5-21.3-4.7c-9.6,1.6-15.8,7.6-16.9,16.3c-0.2,1.7-0.3,3.5-0.3,5.3c0,7.4,1.7,15.6,3.4,23.5
		c1.7,7.9,3.4,16.1,3.4,23.6c0,11.5-4.1,19.5-12.9,25.3c-0.7,0.5-1.4,0.8-2.2,1c-1.4,0.5-2.9,1.1-4.2,2.6
		c-11.1,4-21.7,9.6-32.8,15.6c-5.2,2.8-10.5,5.6-15.9,8.3l0,1c5.6-2.8,11-5.6,16.3-8.5c11.2-6,21.7-11.6,32.8-15.6l0.1-0.1l0.1-0.1
		c1.2-1.4,2.5-1.9,3.9-2.4c0.8-0.3,1.7-0.7,2.4-1.1c9.1-6,13.3-14.3,13.3-26.1c0-7.6-1.7-15.9-3.4-23.9c-1.7-7.8-3.4-15.9-3.4-23.3
		c0-1.8,0.1-3.6,0.3-5.2c1.1-8.3,7-14,16.1-15.5c9.9,0.2,14.7,2.2,20.8,4.7c1.9,0.8,3.8,1.6,6.1,2.4c12.9,4.6,27.7,7,42.2,9.2
		c1.7,0.3,3.5,0.6,5.2,0.9c2,0.3,3.9,0.6,5.9,0.9c15,2.4,30.5,4.9,41.2,9.2c14.4,5.8,18.5,19,23.3,34.3c0.9,2.9,1.8,5.9,2.9,8.9
		c1,3,2.2,6.1,3.3,9c2,5,3.8,9.8,4.3,13.1c0.1,0.8,0.2,2.1,0.2,3.3c0,2.6-0.3,4.7-0.7,5.9c-4.5,11.4-18,12.1-32.2,12.9
		c-10.3,0.6-21,1.2-28.3,6c-4.7,3.2-8.3,7.9-9.5,12.4c-0.3,1.3-0.4,2.6-0.4,3.9c0,3.8,1.2,7.3,2.5,11c1.3,3.9,2.7,8,2.7,12.5
		c0,1.5-0.2,3-0.5,4.5c-1.3,6.1-4.5,10.4-8.1,15.2c-2.1,2.7-4.2,5.5-6.2,9c-2.4,4-4.2,8.6-6.1,13c-0.3,0.9-0.7,1.7-1,2.6h1
		c0.3-0.7,0.6-1.5,0.9-2.2C149.8,318.5,151.6,314,154,310.1z"/>
	<path d="M139.2,308.9c1.2-2.5,2.5-4.8,3.8-7c2.7-4.6,5.2-9,6.2-14.5c0.2-1.6,0.4-3.1,0.4-4.6c0-5.4-1.7-10.2-3.3-14.7
		c-1.5-4.3-3-8.3-3-12.7c0-1.5,0.2-3,0.5-4.4c2.9-12.3,16.6-18.6,24.5-21.3c6.9-2.3,14.7-2.9,22.2-3.5c11.3-0.9,22-1.7,29.7-8
		l0.1-0.1l0-0.1c0.3-1,0.7-1.8,1.1-2.6c1-2,2.1-4.1,2.1-8.5c0-1-0.1-2-0.2-3.1c-1.1-12.5-8.5-36-15.1-44.6
		c-8.8-11.7-24.4-14.8-40.9-18.2l-2.7-0.5c-8.3-1.7-17.6-2.8-26.6-3.9c-6.6-0.8-13.4-1.6-19.7-2.7c-4.7-0.7-8.4-1.8-12.1-2.8
		c-6.2-1.8-12.1-3.4-21.4-3.4h-0.1c-7.7,1.8-11.5,7.3-11.5,16.8c0,7.2,2.1,16.2,4.1,24.9c2.1,8.8,4.2,18,4.2,25.5
		c0,1.2-0.1,2.3-0.2,3.3c-1.8,18.1-19.6,23.6-36.9,28.9c-4.9,1.5-9.6,2.9-13.9,4.7c-0.8,0.3-1.4,0.7-2.1,1.1
		c-0.6,0.4-1.2,0.7-1.9,1.1c-8.3,3.6-17.6,7.5-26.8,11.4l0,1c9.3-3.9,18.8-7.8,27.1-11.5c0.8-0.4,1.4-0.8,2.1-1.2
		c0.6-0.4,1.3-0.8,2-1.1c4.3-1.7,8.9-3.1,13.8-4.7c17.5-5.4,35.6-10.9,37.5-29.6c0.1-1.1,0.2-2.2,0.2-3.4c0-7.7-2.2-16.8-4.3-25.7
		c-2-8.6-4.1-17.5-4.1-24.7c0-9.1,3.4-14.2,10.7-15.9c9.2,0,15,1.6,21.1,3.4c3.7,1,7.5,2.1,12.2,2.9c6.3,1,13.2,1.8,19.8,2.6
		c9,1.1,18.3,2.2,26.5,3.9l2.7,0.6c16.3,3.3,31.7,6.4,40.4,17.8c6.3,8.3,13.8,32,14.9,44.1c0.1,1.1,0.1,2.2,0.1,3.1
		c0,4.2-1,6.2-1.9,8.1c-0.4,0.8-0.8,1.7-1.2,2.6c-7.5,6.1-18,6.9-29.1,7.7c-7.6,0.6-15.4,1.2-22.4,3.6c-8.1,2.7-22.1,9.1-25.1,21.9
		c-0.4,1.6-0.5,3.1-0.5,4.6c0,4.6,1.5,8.7,3,13c1.6,4.5,3.3,9.1,3.3,14.4c0,1.4-0.1,2.9-0.4,4.4c-0.9,5.4-3.4,9.7-6.1,14.2
		c-1.3,2.3-2.7,4.6-3.8,7.1c-0.8,1.7-1.6,3.4-2.3,5c-1.9,4.2-3.6,8.2-5.9,11.6h1.1c2.1-3.4,3.7-7.1,5.6-11.2
		C137.6,312.3,138.4,310.6,139.2,308.9z"/>
	<path class="st1" d="M126.1,292.1c0.4-2.9,0.5-5.7,0.5-8.4c0-10.1-2.4-18.3-4.7-26.2c-2.1-7.2-4.1-13.9-4.1-21.4
		c0-1.7,0.1-3.5,0.3-5.1c18.5-5.9,36.5-10.4,63.7-13.1c0.8,0,1.6-0.1,2.4-0.2c8.1-0.8,19.3-1.8,24.4-7c3.2-3.2,4.8-8,4.8-14
		c0-12-6.3-25.6-10.8-31.5c-13.4-17.6-54.3-22.2-66.5-23.2c-6.7-0.6-13.3-0.4-19.7-0.1c-4.4,0.2-8.7,0.4-12.4,0.2
		c-3.5-0.3-6.3,0.6-8.5,2.6c-3.4,3.2-5.2,9.1-5.2,17.5c0,4.1,0.4,8.7,1.2,13.5c1.7,10.6,5.5,20.4,9.2,29.9c1.2,3,2.2,5.8,3.3,8.6
		c0.9,2.5,1.9,5.2,1.9,7.8c0,0.5,0,1.1-0.1,1.5c-3,2.9-10.3,3.4-18,3.8c-3,0.2-6.2,0.4-9.1,0.8c-18.8,2.3-44.4,11.6-69.1,20.6
		c-2.9,1.1-5.8,2.1-8.7,3.2c-0.3,0.1-0.6,0.2-1,0.3l0,1c0.5-0.2,0.9-0.3,1.3-0.5c2.9-1.1,5.8-2.1,8.7-3.2
		c24.6-9,50.1-18.3,68.9-20.6c2.9-0.4,6-0.6,9-0.8c8-0.5,15.5-1,18.7-4.2l0.1-0.1l0-0.1c0.1-0.6,0.2-1.2,0.2-1.9c0-2.7-1-5.6-2-8.1
		c-1-2.8-2.1-5.7-3.3-8.6c-3.7-9.4-7.5-19.2-9.2-29.6c-0.8-4.8-1.2-9.3-1.2-13.4c0-8.1,1.6-13.8,4.9-16.8c2-1.9,4.6-2.6,7.8-2.4
		c3.8,0.1,8.1,0,12.5-0.1c6.4-0.2,12.9-0.5,19.5,0.1c12.1,1,52.6,5.6,65.8,22.8c4.4,5.8,10.6,19.2,10.6,30.9
		c0,5.8-1.5,10.3-4.6,13.3c-4.9,5-15.8,6-23.8,6.8c-0.8,0.1-1.6,0.1-2.4,0.2c-23.5,2.3-42,6.1-64.1,13.1l-0.3,0.1l0,0.3
		c-0.2,1.9-0.4,3.7-0.4,5.6c0,7.6,2,14.4,4.2,21.6c2.3,7.9,4.7,16,4.7,26c0,2.7-0.2,5.5-0.6,8.3c-1.4,10.6-5.5,21.7-11.1,29.6
		c-0.9,1.3-1.9,2.5-2.9,3.6h1.2c0.9-1,1.7-2,2.4-3.1C120.5,314,124.7,302.8,126.1,292.1z"/>
	<path d="M127.2,199.2c-8.2-6-13.4-16.4-13.4-26.4c0-1,0-2,0.2-3c1.3-11.5,11.2-13.5,20.5-14.6c1.9,0.2,3.9,0.3,6,0.5
		c15.9,1.2,37.7,2.8,48.3,16.1c3.9,4.9,6.4,11.6,6.4,17.2c0,1.2-0.1,2.5-0.3,3.6c-2,9.2-14.5,9.7-26.6,10.2
		c-1.7,0.1-3.5,0.1-5.2,0.2c-2,0.1-3.9,0.3-5.8,0.4C145.3,204.2,135,204.9,127.2,199.2z M163,203.7c1.7-0.1,3.4-0.2,5.2-0.2
		c12.4-0.5,25.2-1.1,27.3-10.8c0.3-1.2,0.4-2.5,0.4-3.7c0-5.7-2.6-12.6-6.6-17.6c-10.8-13.5-32.8-15.2-48.8-16.4
		c-2.2-0.2-4.2-0.3-6.1-0.5h-0.1h0c-9.5,1.1-19.8,3.3-21.2,15.2c-0.1,1.1-0.2,2.1-0.2,3.1c0,10.3,5.4,20.8,13.7,26.9
		c8,5.9,18.5,5.2,30.5,4.3C159.1,204,161.1,203.8,163,203.7z"/>
	<path d="M145.3,186.8c-6.3-1.8-13-5.7-13-11.2c0-1.4,0.5-2.8,1.4-4.3c1.4-2.2,3.5-2.7,6-3.3c1.2-0.3,2.5-0.6,3.8-1.1
		c7.6,0.4,25.2,2.7,25.2,14.4c0,0.5,0,1-0.1,1.6C164.8,188.8,154.1,189.3,145.3,186.8z M169.4,183.3l0.1-0.2
		c0.1-0.6,0.1-1.2,0.1-1.8c0-12.6-18.3-15-26.1-15.4h-0.1l-0.1,0c-1.3,0.6-2.5,0.9-3.7,1.2c-2.6,0.6-5,1.2-6.6,3.7
		c-1,1.6-1.5,3.3-1.5,4.8c0,6,7.1,10.2,13.7,12.1C154.2,190.3,165.5,189.7,169.4,183.3z"/>
	<path d="M97.9,314.6c5.3-8.1,8.3-18.9,8.3-29.4c0-13.2-4.7-24.9-12.8-31.9c-7.7-6.7-18.3-9.4-30.8-7.7
		c-15.4,3.1-27.5,7.1-41.7,11.7l-4.6,1.5c-4.6,1.5-9.6,2.8-14.4,4.1c-0.7,0.1-1.3,0.3-2,0.5l0,1c0.8-0.2,1.5-0.4,2.3-0.6
		c4.8-1.3,9.8-2.6,14.4-4.1l4.6-1.5c14.1-4.6,26.3-8.6,41.5-11.6c12.4-1.7,22.5,0.8,30.1,7.4c7.9,6.9,12.4,18.3,12.4,31.2
		c0,10.4-3,20.9-8.2,29c-3,4.6-6.5,8.1-10.3,11h1.5C91.9,322.3,95.1,318.9,97.9,314.6z"/>
	<path d="M70,303.1c2.9-4,4.5-8.9,4.5-13.7c0-5.4-2-10-5.7-13c-4.3-3.4-10.4-4.3-17.8-2.6c-9.1,1.9-17.5,5.8-25,9.1
		c-1.7,0.8-3.4,1.5-5.1,2.3c-4.7,2-10.2,3.4-15.4,4.8c-1.8,0.5-3.7,0.9-5.5,1.4l0,0.9c1.9-0.6,3.8-1,5.7-1.5
		c5.3-1.3,10.8-2.7,15.6-4.8c1.7-0.7,3.4-1.5,5.1-2.3c7.4-3.3,15.8-7.1,24.8-9.1c7.1-1.6,13-0.8,17,2.4c3.5,2.8,5.4,7.1,5.4,12.3
		c0,4.6-1.6,9.3-4.4,13.3c-6.2,8.6-14.4,12.1-23,16c-4.3,1.9-8.7,3.8-13,6.5H35c3.9-2.3,7.8-4,11.6-5.7
		C55.4,315.6,63.6,311.9,70,303.1z"/>
	<path class="st1" d="M20.3,197.9c8.2-9.5,15.1-19.1,15.1-40.2c0-3.4-0.2-7.2-0.5-11.2c-0.4-4.6-1.5-10-2.7-15.6
		c-1-5-2.1-10.1-2.7-14.8c-0.2-1.5-0.3-3-0.5-4.5c-0.8-7.4-1.4-13.3-5.9-17.4c-4-3.6-13.3-5.5-23.1-6.7l0,0.9
		c8.9,1.1,18.6,3.1,22.4,6.5c4.3,3.9,4.9,9.6,5.6,16.8c0.2,1.4,0.3,3,0.5,4.5c0.6,4.8,1.7,9.9,2.7,14.9c1.2,5.6,2.3,10.9,2.7,15.5
		c0.3,3.9,0.5,7.6,0.5,11.1c0,20.8-6.7,30.2-14.9,39.7c-6.5,7.5-13.3,14.5-19.6,20.3l0,1.2C6.5,213,13.6,205.7,20.3,197.9z"/>
	<path d="M18.6,158c0-2.1-0.1-4.3-0.3-6.1c-1.1-11.4-5.3-27.7-12-36.6c-1.9-2.5-4-4.6-6.4-6.3l0,1.2c2.1,1.6,4,3.4,5.6,5.6
		c6.6,8.7,10.7,24.8,11.8,36.1c0.2,1.8,0.3,4,0.3,6.1c0,2.5-0.1,4.6-0.4,6.3c-1.8,13-8.5,25.1-17.3,35.6l0,1.4
		c9.3-10.7,16.4-23.3,18.3-36.9C18.5,162.7,18.6,160.5,18.6,158z"/>
	<path d="M14,38.5c0-3.9-0.6-8-1.9-12.5C9.9,18.3,5.2,8.8,0,0l0,1.7C4.9,10.2,9.2,19,11.3,26.4c1.2,4.3,1.9,8.4,1.9,12.2
		c0,7.8-2.6,14.3-7.6,18.9C3.9,59,2.1,60.3,0,61.4l0,1.1c2.3-1.1,4.3-2.6,6.1-4.2C11.2,53.4,14,46.6,14,38.5z"/>
	<path d="M11.2,319.7c-1.6-5.4-6.6-5.9-11.2-5.6l0,0.9c4.3-0.3,8.9,0.1,10.3,4.9c0.1,1.8-0.3,3.6-0.9,5.3h0.9
		c0.6-1.7,0.9-3.5,0.8-5.4V319.7z"/>
	<path d="M0,127.6l0,2.1c4.3,8.2,6.4,16.6,6.4,25.5c0,8.8-2.2,17.6-6.4,26.2l0,2.2c4.9-9.2,7.5-18.8,7.5-28.4
		C7.5,145.6,5,136.5,0,127.6z"/>
	<path d="M4.7,38.5c0-4.1-1.8-9-4.7-14.3l0,2.2c2.2,4.5,3.5,8.5,3.5,12c0,1.1-0.1,2.1-0.4,3c-0.7,2.2-1.8,4.1-3.1,5.6l0,1.4
		c2-1.9,3.5-4.1,4.2-6.7C4.5,40.7,4.7,39.7,4.7,38.5z"/>
</g>
</svg>
