<svg id="Calque_1" data-name="Calque 1" xmlns="http://www.w3.org/2000/svg" viewBox="0 0 1025 1025"><defs><style>.cls-1{fill:#0a0a0a;stroke:#000;stroke-miterlimit:10;}.cls-2{fill:#e5482d;}</style></defs><rect class="cls-1" x="0.5" y="0.5" width="1024" height="1024" rx="204.8"/><path class="cls-2" d="M707.06,326.26c-1.94,38.17,70.18,59.32,59.5,85-12.12,29.12-110.65,15.54-278,53.36-61.3,13.85-97.18,26.76-106.85,51.39-11.88,30.24,27.46,48.43,19.42,79-12,45.76-115.74,65.52-206.41,82C99.24,694.42,28,699.1,0,700.34V819.2c0,2.69.07,5.36.17,8C54,816.09,102,805.37,143.67,795.63c341.75-79.77,452.84-137.69,449.26-187.74-2-28.62-45.91-52-32.79-76.09,13.3-24.4,66.94-16.11,157.85-32.61,31.41-5.7,172.71-31.34,178.49-74.11,5-37.44-98.38-53.41-100.07-96.66C793.87,263,1027.1,216.42,1024,208.67,1020.39,199.82,711.05,248.12,707.06,326.26Z" transform="translate(0.5 0.5)"/></svg>
